<svg width="98" height="17" viewBox="0 0 98 17" fill="none" xmlns="http://www.w3.org/2000/svg">
<path d="M5.54664 13.4557C4.64693 13.4557 3.87077 13.2506 3.21813 12.8404C2.5655 12.4301 2.06204 11.8404 1.70775 11.0713C1.35812 10.2974 1.18331 9.36975 1.18331 8.28824C1.18331 7.19741 1.36278 6.26274 1.72173 5.48424C2.08534 4.70108 2.60046 4.10206 3.26708 3.68717C3.9337 3.27228 4.71686 3.06483 5.61656 3.06483C6.15266 3.06483 6.64912 3.15574 7.10597 3.33754C7.56747 3.51935 7.97304 3.76642 8.32266 4.07875C8.67695 4.39108 8.95665 4.74537 9.16177 5.14161C9.36688 5.53785 9.48342 5.95274 9.51139 6.38628H7.9171C7.85184 6.02733 7.71199 5.69635 7.49755 5.39334C7.28777 5.08567 7.01973 4.8386 6.69341 4.65213C6.36709 4.46567 5.99882 4.37243 5.58859 4.37243C5.04318 4.37243 4.56069 4.50762 4.14114 4.778C3.72159 5.04838 3.39294 5.47026 3.1552 6.04364C2.92211 6.61237 2.80557 7.34891 2.80557 8.25328C2.80557 8.95719 2.87783 9.55622 3.02234 10.0504C3.17151 10.5445 3.3743 10.9431 3.63069 11.2461C3.88708 11.5491 4.18776 11.7705 4.53272 11.9104C4.87769 12.0456 5.24596 12.1131 5.63754 12.1131C6.02446 12.1131 6.36476 12.0456 6.65845 11.9104C6.95213 11.7752 7.19687 11.6004 7.39266 11.3859C7.59311 11.1715 7.74695 10.9407 7.85417 10.6937C7.96605 10.4419 8.03131 10.1995 8.04996 9.96644L8.0989 9.14832H5.73544V8.07147L9.65823 8.08546V13.3159H8.5744V11.8334C8.39725 12.1085 8.17582 12.3695 7.91011 12.6166C7.64439 12.8637 7.31807 13.0665 6.93115 13.225C6.54424 13.3788 6.08273 13.4557 5.54664 13.4557ZM14.9479 13.4557C14.2626 13.4557 13.6589 13.3089 13.1368 13.0152C12.6147 12.7168 12.2068 12.2926 11.9131 11.7425C11.6241 11.1925 11.4796 10.5375 11.4796 9.77765C11.4796 9.02712 11.6124 8.36516 11.8781 7.79177C12.1439 7.21373 12.5284 6.76154 13.0319 6.43523C13.5354 6.10891 14.1414 5.94575 14.85 5.94575C15.5445 5.94575 16.1319 6.09492 16.6121 6.39327C17.0922 6.69162 17.4558 7.11117 17.7029 7.65192C17.95 8.18801 18.0735 8.822 18.0735 9.55389V10.0504H12.983C12.9783 10.4839 13.0482 10.8731 13.1927 11.2181C13.3372 11.5584 13.5517 11.8288 13.836 12.0292C14.1251 12.225 14.484 12.3229 14.9129 12.3229C15.3464 12.3229 15.7194 12.225 16.0317 12.0292C16.3487 11.8334 16.5561 11.5421 16.654 11.1552H18.0385C17.9546 11.6493 17.7565 12.0689 17.4442 12.4138C17.1318 12.7588 16.7566 13.0198 16.3184 13.197C15.8802 13.3695 15.4233 13.4557 14.9479 13.4557ZM12.983 9.0784H16.647C16.647 8.7008 16.5818 8.35817 16.4512 8.0505C16.3207 7.73816 16.1203 7.49343 15.8499 7.31628C15.5842 7.13448 15.2485 7.04357 14.843 7.04357C14.4281 7.04357 14.0831 7.1438 13.8081 7.34425C13.533 7.5447 13.3256 7.8011 13.1857 8.11343C13.0505 8.42576 12.983 8.74742 12.983 9.0784ZM22.253 13.3648C21.7169 13.3648 21.302 13.2925 21.0083 13.148C20.7146 13.0035 20.5095 12.7961 20.3929 12.5257C20.2764 12.2507 20.2181 11.9197 20.2181 11.5328V7.16245H19.0434V6.0856H20.2671L20.6307 3.95988H21.7215V6.07861H23.3438V7.16245H21.7215L21.7285 11.4768C21.7285 11.7146 21.7518 11.8894 21.7984 12.0013C21.8497 12.1085 21.9336 12.1784 22.0502 12.211C22.1714 12.239 22.3345 12.253 22.5396 12.253H23.3787V13.225C23.2902 13.2622 23.1527 13.2949 22.9662 13.3228C22.7844 13.3508 22.5466 13.3648 22.253 13.3648ZM30.4169 13.4557C29.9508 13.4557 29.5359 13.3718 29.1723 13.204C28.8133 13.0362 28.5313 12.7937 28.3262 12.4768C28.121 12.1598 28.0185 11.7775 28.0185 11.33C28.0185 10.5282 28.3005 9.92915 28.8646 9.53291C29.4333 9.13667 30.3423 8.92689 31.5917 8.90358L32.7804 8.86862V8.34418C32.7804 7.92929 32.6569 7.60298 32.4098 7.36523C32.1627 7.12748 31.7805 7.01094 31.263 7.0156C30.8808 7.0156 30.5381 7.10418 30.2351 7.28132C29.9321 7.45846 29.734 7.74982 29.6408 8.15538H28.3471C28.3751 7.67523 28.5126 7.272 28.7597 6.94568C29.0114 6.6147 29.3564 6.3653 29.7946 6.19748C30.2328 6.02966 30.7456 5.94575 31.3329 5.94575C31.9949 5.94575 32.538 6.03665 32.9622 6.21846C33.3864 6.3956 33.7011 6.65665 33.9062 7.00162C34.116 7.34658 34.2209 7.76613 34.2209 8.26027V13.3159H32.9482L32.8363 11.9873C32.566 12.542 32.2233 12.9266 31.8084 13.141C31.3935 13.3508 30.9297 13.4557 30.4169 13.4557ZM30.8854 12.4138C31.1138 12.4138 31.3399 12.3742 31.5637 12.295C31.7875 12.211 31.9902 12.0992 32.172 11.9593C32.3539 11.8148 32.4984 11.654 32.6056 11.4768C32.7175 11.2997 32.7757 11.1179 32.7804 10.9314V9.73569L31.8014 9.75667C31.3026 9.76133 30.8784 9.81261 30.5288 9.9105C30.1838 10.0084 29.9181 10.1599 29.7317 10.365C29.5499 10.5701 29.459 10.8428 29.459 11.1831C29.459 11.5701 29.5918 11.8731 29.8575 12.0922C30.1279 12.3066 30.4705 12.4138 30.8854 12.4138ZM39.7368 13.3159V3.20468H43.2401C43.9627 3.20468 44.6083 3.32822 45.177 3.57529C45.7504 3.82236 46.2003 4.18597 46.5266 4.66612C46.8576 5.14627 47.023 5.73597 47.023 6.43523C47.023 7.10651 46.8715 7.67989 46.5685 8.15538C46.2702 8.62621 45.8506 8.98749 45.3099 9.23922C44.7738 9.48629 44.1515 9.60983 43.4429 9.60983H41.2612V13.3159H39.7368ZM41.2542 8.38614H43.4009C44.0442 8.38614 44.5687 8.202 44.9742 7.83373C45.3798 7.46079 45.5826 6.96666 45.5826 6.35132C45.5826 5.72665 45.3728 5.24883 44.9533 4.91785C44.5337 4.58221 43.9976 4.41439 43.345 4.41439H41.2542V8.38614ZM48.4303 13.3159V6.0856H49.8638V7.56801C49.985 7.21373 50.1528 6.91771 50.3672 6.67996C50.5863 6.43756 50.8404 6.25575 51.1294 6.13455C51.4184 6.00868 51.7238 5.94575 52.0454 5.94575C52.1433 5.94575 52.2365 5.95274 52.3251 5.96673C52.4137 5.97605 52.4836 5.9947 52.5349 6.02267V7.46312C52.4743 7.43515 52.395 7.41651 52.2971 7.40718C52.2039 7.39786 52.1223 7.39087 52.0524 7.38621C51.7354 7.3629 51.4464 7.37921 51.1853 7.43515C50.9243 7.49109 50.6982 7.58433 50.5071 7.71485C50.3206 7.84538 50.1761 8.01553 50.0735 8.22531C49.9756 8.43508 49.9267 8.68215 49.9267 8.96651V13.3159H48.4303ZM54.0101 13.3159V6.0856H55.4506V13.3159H54.0101ZM53.9751 4.6871V3.21168H55.4785V4.6871H53.9751ZM57.0089 13.3159V12.4208L60.9457 7.16944H57.1837V6.0856H62.7428V6.98064L58.799 12.232H62.7707V13.3159H57.0089ZM67.378 13.4557C66.6928 13.4557 66.0891 13.3089 65.567 13.0152C65.0449 12.7168 64.637 12.2926 64.3433 11.7425C64.0543 11.1925 63.9097 10.5375 63.9097 9.77765C63.9097 9.02712 64.0426 8.36516 64.3083 7.79177C64.574 7.21373 64.9586 6.76154 65.4621 6.43523C65.9655 6.10891 66.5716 5.94575 67.2801 5.94575C67.9747 5.94575 68.5621 6.09492 69.0422 6.39327C69.5224 6.69162 69.886 7.11117 70.1331 7.65192C70.3801 8.18801 70.5037 8.822 70.5037 9.55389V10.0504H65.4131C65.4085 10.4839 65.4784 10.8731 65.6229 11.2181C65.7674 11.5584 65.9819 11.8288 66.2662 12.0292C66.5552 12.225 66.9142 12.3229 67.3431 12.3229C67.7766 12.3229 68.1495 12.225 68.4619 12.0292C68.7789 11.8334 68.9863 11.5421 69.0842 11.1552H70.4687C70.3848 11.6493 70.1867 12.0689 69.8744 12.4138C69.562 12.7588 69.1868 13.0198 68.7486 13.197C68.3104 13.3695 67.8535 13.4557 67.378 13.4557ZM65.4131 9.0784H69.0772C69.0772 8.7008 69.0119 8.35817 68.8814 8.0505C68.7509 7.73816 68.5504 7.49343 68.2801 7.31628C68.0143 7.13448 67.6787 7.04357 67.2731 7.04357C66.8583 7.04357 66.5133 7.1438 66.2382 7.34425C65.9632 7.5447 65.7558 7.8011 65.6159 8.11343C65.4807 8.42576 65.4131 8.74742 65.4131 9.0784Z" fill="white"/>
<path d="M96.9628 8.99989C97.1413 8.82143 97.1413 8.53209 96.9628 8.35363L94.0546 5.44544C93.8761 5.26698 93.5868 5.26698 93.4083 5.44544C93.2299 5.62391 93.2299 5.91325 93.4083 6.09171L95.9934 8.67676L93.4083 11.2618C93.2299 11.4403 93.2299 11.7296 93.4083 11.9081C93.5868 12.0865 93.8761 12.0865 94.0546 11.9081L96.9628 8.99989ZM79.2745 9.13373L96.6397 9.13374L96.6397 8.21978L79.2745 8.21978L79.2745 9.13373Z" fill="white"/>
</svg>
